<svg version="1.1" xmlns="http://www.w3.org/2000/svg" viewBox="0 0 2542.7243174110386 2781.912125258724" width="5085.448634822077" height="5563.824250517448">
  <!-- svg-source:excalidraw -->
  
  <defs>
    <style class="style-fonts">
      @font-face {
        font-family: "Virgil";
        src: url("https://excalidraw.com/Virgil.woff2");
      }
      @font-face {
        font-family: "Cascadia";
        src: url("https://excalidraw.com/Cascadia.woff2");
      }
    </style>
    
  </defs>
  <rect x="0" y="0" width="2542.7243174110386" height="2781.912125258724" fill="#ffffff"></rect><g stroke-linecap="round" transform="translate(10 1418.8052518993886) rotate(0 167.689453125 311.755859375)"><path d="M32 0 M32 0 C110.35 -1.93, 190.73 -1.85, 303.38 0 M32 0 C93.97 0.69, 155.16 0.91, 303.38 0 M303.38 0 C325.16 1.13, 336.51 11.52, 335.38 32 M303.38 0 C323.89 -1.69, 334.23 11.66, 335.38 32 M335.38 32 C337.31 211.48, 336.92 391.43, 335.38 591.51 M335.38 32 C334.8 223.62, 334.83 414.67, 335.38 591.51 M335.38 591.51 C333.76 612.75, 325.73 622.05, 303.38 623.51 M335.38 591.51 C336.77 613.96, 325.94 621.36, 303.38 623.51 M303.38 623.51 C247.15 623.95, 188.25 623.99, 32 623.51 M303.38 623.51 C218.47 622.83, 132.1 622.99, 32 623.51 M32 623.51 C9.09 622.94, 0.39 613.41, 0 591.51 M32 623.51 C9.14 625.15, -0.1 611.3, 0 591.51 M0 591.51 C-0.34 374.28, -0.78 157.62, 0 32 M0 591.51 C0.45 373.65, 0.9 156.54, 0 32 M0 32 C-0.74 11.68, 11.5 1.61, 32 0 M0 32 C-0.39 11.14, 12.27 1.52, 32 0" stroke="#1e1e1e" stroke-width="1" fill="none"></path></g><g transform="translate(155.51953125 1384.3130643993886) rotate(0 23.399978637695312 12.5)"><text x="0" y="0" font-family="Virgil, Segoe UI Emoji" font-size="20px" fill="#1e1e1e" text-anchor="start" style="white-space: pre;" direction="ltr" dominant-baseline="text-before-edge">Login</text></g><g stroke-linecap="round" transform="translate(650.5524365715942 1088.4538568318928) rotate(0 185.16801981552635 343.8031990926588)"><path d="M32 0 M32 0 C98.01 1.3, 161.19 1.76, 338.34 0 M32 0 C120.54 -1.49, 208.33 -1.28, 338.34 0 M338.34 0 C359.29 -1.14, 369.12 10.19, 370.34 32 M338.34 0 C357.88 0.12, 371.36 11.14, 370.34 32 M370.34 32 C371.63 237.61, 372.15 442.88, 370.34 655.61 M370.34 32 C371.18 226.6, 371.11 421.05, 370.34 655.61 M370.34 655.61 C371.93 675.66, 359.63 689.38, 338.34 687.61 M370.34 655.61 C368.64 677.79, 360.01 688.11, 338.34 687.61 M338.34 687.61 C230.18 684.92, 123.65 685.84, 32 687.61 M338.34 687.61 C264.54 689.16, 190.77 689.51, 32 687.61 M32 687.61 C10.9 686.97, 1.35 675.1, 0 655.61 M32 687.61 C12.89 688.23, -0.88 675.61, 0 655.61 M0 655.61 C-2.09 477.41, -1.65 299.3, 0 32 M0 655.61 C-0.28 458.84, -0.43 262.69, 0 32 M0 32 C-1.17 8.83, 10.75 -0.06, 32 0 M0 32 C0.19 10.83, 10.74 1.3, 32 0" stroke="#1e1e1e" stroke-width="1" fill="none"></path></g><g transform="translate(814.616710914881 1042.1670104372854) rotate(0 31.989990234375 17.5)"><text x="0" y="0" font-family="Virgil, Segoe UI Emoji" font-size="28px" fill="#1e1e1e" text-anchor="start" style="white-space: pre;" direction="ltr" dominant-baseline="text-before-edge">Home</text></g><g stroke-linecap="round" transform="translate(647.7701945863209 1693.175167747892) rotate(0 184.67385031449248 39.88557123414131)"><path d="M19.94 0 M19.94 0 C90.19 -1.33, 163.68 -0.8, 349.4 0 M19.94 0 C145.02 1.48, 269.87 2.03, 349.4 0 M349.4 0 C360.98 -0.49, 370.38 7.08, 369.35 19.94 M349.4 0 C363.91 -1.55, 371.1 7.84, 369.35 19.94 M369.35 19.94 C370.59 29.77, 370.22 42.47, 369.35 59.83 M369.35 19.94 C370.31 30.48, 368.97 39.93, 369.35 59.83 M369.35 59.83 C368.67 73.59, 361.42 78.75, 349.4 79.77 M369.35 59.83 C369.17 73.14, 363.15 77.68, 349.4 79.77 M349.4 79.77 C264.45 76.44, 181.8 77.47, 19.94 79.77 M349.4 79.77 C229.08 80.19, 108.02 79.86, 19.94 79.77 M19.94 79.77 C5.16 79.36, -0.6 74.21, 0 59.83 M19.94 79.77 C5.09 78.51, -1.21 74.15, 0 59.83 M0 59.83 C1.03 49.16, 0.09 38.07, 0 19.94 M0 59.83 C-1.16 48.98, -1.03 35.54, 0 19.94 M0 19.94 C-0.97 6.1, 8.29 -1.84, 19.94 0 M0 19.94 C-1.26 6.76, 7.83 -0.21, 19.94 0" stroke="#1e1e1e" stroke-width="1" fill="none"></path></g><g stroke-linecap="round" transform="translate(686.951743517619 1176.5784947012157) rotate(0 148.95148789043208 240.61316088701875)"><path d="M32 0 M32 0 C95.2 1.43, 157.28 0.22, 265.9 0 M32 0 C105.83 1.21, 181.69 1.87, 265.9 0 M265.9 0 C286.99 0.48, 299.44 10.46, 297.9 32 M265.9 0 C287.74 -0.97, 298.05 12.08, 297.9 32 M297.9 32 C295.07 157.03, 296.26 281.49, 297.9 449.23 M297.9 32 C299.85 171.21, 299.82 311.14, 297.9 449.23 M297.9 449.23 C298.66 471.95, 285.7 481.51, 265.9 481.23 M297.9 449.23 C298.81 468.46, 285.65 481.5, 265.9 481.23 M265.9 481.23 C207.79 478.69, 145.72 481.59, 32 481.23 M265.9 481.23 C205.41 482.07, 143.78 481.85, 32 481.23 M32 481.23 C10.39 479.33, 0.17 471.47, 0 449.23 M32 481.23 C10.44 483.33, -2.01 469.5, 0 449.23 M0 449.23 C0.99 326.33, 1.74 205.72, 0 32 M0 449.23 C-0.97 346.17, -0.97 242.47, 0 32 M0 32 C0.37 10.95, 9.39 -1.27, 32 0 M0 32 C-1.83 8.47, 12.15 0.1, 32 0" stroke="#1e1e1e" stroke-width="1" fill="none"></path></g><g transform="translate(683.5331736816988 1118.7429747618958) rotate(0 68.76797485351562 17.5)"><text x="0" y="0" font-family="Virgil, Segoe UI Emoji" font-size="28px" fill="#1e1e1e" text-anchor="start" style="white-space: pre;" direction="ltr" dominant-baseline="text-before-edge">Hello User</text></g><g stroke-linecap="round"><g transform="translate(688.45456035638 1577.3296517041272) rotate(0 145.4847094589137 0.13993722433832545)"><path d="M-0.19 -0.28 C48.69 0.14, 244 1.78, 292.73 1.75 M-1.76 -1.47 C47.03 -1.29, 243.02 -0.04, 291.83 0.25" stroke="#f08c00" stroke-width="1" fill="none"></path></g></g><mask></mask><g stroke-linecap="round"><g transform="translate(688.7117992747263 1437.329393019359) rotate(0 149.84757024267532 0.990379342949538)"><path d="M1.16 -0.7 C51.15 -0.36, 249.47 1.06, 299.39 1.24 M0.31 1.54 C50.15 2.14, 248.19 2.76, 298.2 2.68" stroke="#1971c2" stroke-width="1" fill="none"></path></g></g><mask></mask><g stroke-linecap="round"><g transform="translate(690.6410911623248 1547.9773372317518) rotate(0 146.5276852569059 -0.5142085667921776)"><path d="M0.29 -0.25 C49.44 -0.48, 244.98 -1.01, 294.07 -1.03 M-1.01 -1.43 C48.06 -1.51, 243.95 0.56, 293.21 0.39" stroke="#e03131" stroke-width="1" fill="none"></path></g></g><mask></mask><g stroke-linecap="round"><g transform="translate(687.066824086353 1396.3214559760722) rotate(0 148.9072316410477 2.4145945870148324)"><path d="M0.27 -0.78 C50.07 0.13, 249.35 3.51, 298.86 4.68 M-1.05 1.43 C48.64 2.51, 248.1 5.16, 298.23 5.61" stroke="#2f9e44" stroke-width="1" fill="none"></path></g></g><mask></mask><g stroke-linecap="round" transform="translate(905.361124084206 1287.6718602007893) rotate(0 15.559569837351205 15.336178145102963)"><path d="M20 4 M20 4 C22.78 5.97, 23.92 8.78, 27.12 12 M20 4 C22.03 7.06, 24.49 9.45, 27.12 12 M27.12 12 C32.06 16.79, 32.3 17.49, 27.12 20 M27.12 12 C32.62 13.87, 32.84 15.04, 27.12 20 M27.12 20 C24.86 23.03, 21.1 23.86, 20 26.67 M27.12 20 C25.06 21.78, 23.2 22.95, 20 26.67 M20 26.67 C17.12 30.06, 17.56 31.28, 12 26.67 M20 26.67 C15.49 29.89, 17.16 30.61, 12 26.67 M12 26.67 C9.16 25.87, 7.37 23.51, 4 20 M12 26.67 C9.78 24.74, 7 22.21, 4 20 M4 20 C-1.75 17.53, -0.91 14.47, 4 12 M4 20 C1.99 14.98, -0.79 14.13, 4 12 M4 12 C7.01 9.89, 9.73 6.68, 12 4 M4 12 C7.39 9.18, 10.53 5.81, 12 4 M12 4 C15.84 -0.15, 16.14 0.61, 20 4 M12 4 C17.8 -0.66, 18.28 0.31, 20 4" stroke="#2f9e44" stroke-width="1" fill="none"></path></g><g stroke-linecap="round"><g transform="translate(354.5042887809125 1748.962165802976) rotate(0 143.4877224328755 -157.25258013934547)"><path d="M0.36 0.94 C48.36 -51.4, 239.88 -261.27, 287.88 -313.95 M-0.91 0.39 C46.91 -52.26, 238.65 -263.07, 286.75 -315.44" stroke="#1e1e1e" stroke-width="1" fill="none"></path></g><g transform="translate(354.5042887809125 1748.962165802976) rotate(0 143.4877224328755 -157.25258013934547)"><path d="M276.88 -288.28 C280.62 -295.58, 281.97 -304.33, 287.11 -314.4 M274.56 -287.62 C277.96 -296.19, 281.94 -302.85, 286.46 -315.28" stroke="#1e1e1e" stroke-width="1" fill="none"></path></g><g transform="translate(354.5042887809125 1748.962165802976) rotate(0 143.4877224328755 -157.25258013934547)"><path d="M261.73 -302.12 C269.91 -305.42, 275.68 -310.12, 287.11 -314.4 M259.4 -301.46 C267.16 -306.1, 275.39 -308.89, 286.46 -315.28" stroke="#1e1e1e" stroke-width="1" fill="none"></path></g></g><mask></mask><g stroke-linecap="round"><g transform="translate(942.4441449974147 1300.0734838431767) rotate(0 152.0624333521382 -65.78086073744454)"><path d="M-1.17 -0.95 C49.5 -22.59, 252.35 -109.22, 303.15 -130.73 M0.42 1.16 C51.51 -20.79, 254.94 -110.56, 305.29 -132.72" stroke="#1e1e1e" stroke-width="1" fill="none"></path></g><g transform="translate(942.4441449974147 1300.0734838431767) rotate(0 152.0624333521382 -65.78086073744454)"><path d="M282.04 -113.77 C289.19 -117.54, 295.43 -122.69, 303.61 -133.74 M284.01 -111.62 C291.3 -117.81, 296.11 -125.18, 305.69 -131.99" stroke="#1e1e1e" stroke-width="1" fill="none"></path></g><g transform="translate(942.4441449974147 1300.0734838431767) rotate(0 152.0624333521382 -65.78086073744454)"><path d="M273.77 -132.55 C282.69 -131.91, 290.84 -132.73, 303.61 -133.74 M275.73 -130.4 C285.47 -130.89, 292.81 -132.52, 305.69 -131.99" stroke="#1e1e1e" stroke-width="1" fill="none"></path></g></g><mask></mask><g stroke-linecap="round" transform="translate(1242.326697293754 1034.1290589442508) rotate(0 199.64109369512482 379.1633961974683)"><path d="M32 0 M32 0 C151.18 1.82, 267.57 0.75, 367.28 0 M32 0 C112.81 -1.31, 192.61 -1.37, 367.28 0 M367.28 0 C388.21 0.13, 400.66 9.52, 399.28 32 M367.28 0 C390.74 -0.39, 400.46 8.47, 399.28 32 M399.28 32 C402.03 290.95, 401.22 549.29, 399.28 726.33 M399.28 32 C399.86 277.48, 399.74 523.75, 399.28 726.33 M399.28 726.33 C400.14 746.4, 386.84 757.19, 367.28 758.33 M399.28 726.33 C398.14 745.95, 389.47 760.59, 367.28 758.33 M367.28 758.33 C282.13 760.96, 200.08 760.48, 32 758.33 M367.28 758.33 C283.43 756.1, 198.37 756.56, 32 758.33 M32 758.33 C9.62 756.74, 0.83 746.38, 0 726.33 M32 758.33 C10.71 757.86, -2.16 747.11, 0 726.33 M0 726.33 C1.71 581.46, 3.15 437.47, 0 32 M0 726.33 C-2.88 474.3, -2.4 222.62, 0 32 M0 32 C1.1 8.85, 9.48 -0.66, 32 0 M0 32 C0.5 8.55, 8.39 0.99, 32 0" stroke="#1e1e1e" stroke-width="1" fill="none"></path></g><g stroke-linecap="round" transform="translate(1246.9409314846166 1706.8968332081095) rotate(0 194.5 40)"><path d="M20 0 M20 0 C108.27 1.72, 196.14 0.77, 369 0 M20 0 C103.44 -0.59, 186.75 -0.85, 369 0 M369 0 C383.06 0.1, 387.4 6.18, 389 20 M369 0 C381.14 1.95, 390.26 4.72, 389 20 M389 20 C388.46 30.4, 390.36 40.33, 389 60 M389 20 C388.76 34.5, 388.65 49.42, 389 60 M389 60 C390.4 74, 381.92 80.57, 369 80 M389 60 C390.34 74.69, 382.38 80.8, 369 80 M369 80 C294.44 79.39, 219.48 80.44, 20 80 M369 80 C254.01 79.5, 138.3 79.49, 20 80 M20 80 C8.24 80, -1.91 75.06, 0 60 M20 80 C8.47 78.02, -1.56 74.35, 0 60 M0 60 C-2.02 48.04, -0.12 33.09, 0 20 M0 60 C-0.39 48.56, 0.65 39.59, 0 20 M0 20 C1.94 5.44, 5.63 -0.95, 20 0 M0 20 C-2.19 6.61, 6.9 0.24, 20 0" stroke="#1e1e1e" stroke-width="1" fill="none"></path></g><g transform="translate(1350.2010099147924 1734.3968332081095) rotate(0 91.23992156982422 12.5)"><text x="91.23992156982422" y="0" font-family="Virgil, Segoe UI Emoji" font-size="20px" fill="#1e1e1e" text-anchor="middle" style="white-space: pre;" direction="ltr" dominant-baseline="text-before-edge">Bottom Navigation</text></g><g transform="translate(1043.918128839875 1199.4009842503353) rotate(333.4271158818706 41.015625 16.8)"><text x="0" y="0" font-family="Cascadia, Segoe UI Emoji" font-size="28px" fill="#1e1e1e" text-anchor="start" style="white-space: pre;" direction="ltr" dominant-baseline="text-before-edge">touch</text></g><g stroke-linecap="round" transform="translate(667.6249774155359 1709.591072405528) rotate(0 24.881095904800702 21.990542796012733)"><path d="M31.25 5.5 M31.25 5.5 C33.61 9.03, 37.41 10.76, 43.51 16.5 M31.25 5.5 C34.99 9.14, 40.4 14.08, 43.51 16.5 M43.51 16.5 C48.74 22.04, 48.67 22.97, 43.51 27.5 M43.51 16.5 C49.62 23.07, 51.07 19.99, 43.51 27.5 M43.51 27.5 C41.24 28.78, 38.46 32.73, 31.25 38.48 M43.51 27.5 C41.37 29.24, 38.87 31.28, 31.25 38.48 M31.25 38.48 C25.59 45.44, 24.86 45.18, 18.75 38.48 M31.25 38.48 C26.75 44.89, 25.63 44.69, 18.75 38.48 M18.75 38.48 C12.78 32.82, 10.17 31, 6.25 27.5 M18.75 38.48 C14.58 33.36, 9.65 29.15, 6.25 27.5 M6.25 27.5 C-1.55 21.61, -0.18 21.77, 6.25 16.5 M6.25 27.5 C1.74 21.22, -0.3 20.99, 6.25 16.5 M6.25 16.5 C11.21 14.24, 16.17 7.97, 18.75 5.5 M6.25 16.5 C10.37 11.89, 15.85 8.2, 18.75 5.5 M18.75 5.5 C23.25 -0.08, 26.34 1.04, 31.25 5.5 M18.75 5.5 C24.73 -0.88, 25.54 -1.86, 31.25 5.5" stroke="#1e1e1e" stroke-width="1" fill="none"></path></g><g stroke-linecap="round" transform="translate(740.1325051631404 1707.6956277440277) rotate(0 24.75586116823729 23.847361581120424)"><path d="M31.25 6 M31.25 6 C33.57 10.14, 36.47 9.93, 43.26 18 M31.25 6 C34.3 8.88, 37.86 12.07, 43.26 18 M43.26 18 C48.7 23.35, 48.33 25.47, 43.26 30 M43.26 18 C48.34 25.39, 51.61 24.24, 43.26 30 M43.26 30 C39.56 34.73, 37.14 35.93, 31.25 41.69 M43.26 30 C39.02 34.15, 34.87 38.38, 31.25 41.69 M31.25 41.69 C23.18 46.16, 25.87 47, 18.75 41.69 M31.25 41.69 C25.99 49.9, 25.38 45.58, 18.75 41.69 M18.75 41.69 C14.33 38.4, 11.12 35.07, 6.25 30 M18.75 41.69 C16.75 38.72, 12.88 36.98, 6.25 30 M6.25 30 C-0.76 25.35, -0.08 23.94, 6.25 18 M6.25 30 C-0.74 24.6, -2.01 22.51, 6.25 18 M6.25 18 C9.22 16.36, 12.89 12.01, 18.75 6 M6.25 18 C9.58 14.76, 11.22 13.01, 18.75 6 M18.75 6 C25.23 1.13, 23.75 -0.15, 31.25 6 M18.75 6 C26.89 1.58, 23.43 -1.68, 31.25 6" stroke="#1e1e1e" stroke-width="1" fill="none"></path></g><g stroke-linecap="round" transform="translate(870.180317277717 1709.5249564347516) rotate(0 24.952175079606945 23.962442149854326)"><path d="M31.25 6 M31.25 6 C35.33 10.53, 37.35 13.84, 43.65 18 M31.25 6 C35.04 9.08, 38.52 12.53, 43.65 18 M43.65 18 C49.98 22.04, 48.97 25.53, 43.65 30 M43.65 18 C48.43 22.24, 48.4 26.02, 43.65 30 M43.65 30 C38.42 33.38, 34.15 38.66, 31.25 41.92 M43.65 30 C39.7 33.22, 35.37 37.15, 31.25 41.92 M31.25 41.92 C23.19 47.47, 23.31 47.32, 18.75 41.92 M31.25 41.92 C24.13 47.6, 23.17 49.57, 18.75 41.92 M18.75 41.92 C13.58 37.85, 8.72 32.69, 6.25 30 M18.75 41.92 C15.04 38.06, 12.82 35.86, 6.25 30 M6.25 30 C0.9 25.2, 1.84 25.11, 6.25 18 M6.25 30 C-1.9 25.36, -1.08 25, 6.25 18 M6.25 18 C10.96 14.86, 13.59 9.55, 18.75 6 M6.25 18 C10.49 12.71, 16.28 8.2, 18.75 6 M18.75 6 C23.2 1.15, 23.54 1.7, 31.25 6 M18.75 6 C25.28 -1.97, 25.83 -0.72, 31.25 6" stroke="#1e1e1e" stroke-width="1" fill="none"></path></g><g transform="translate(594.0884939945455 1818.1120487216372) rotate(0 32.8125 16.80000000000001)"><text x="0" y="0" font-family="Cascadia, Segoe UI Emoji" font-size="28px" fill="#1e1e1e" text-anchor="start" style="white-space: pre;" direction="ltr" dominant-baseline="text-before-edge">Home</text></g><g stroke-linecap="round"><g transform="translate(688.1160880953977 1753.9106302585355) rotate(0 -15.766882081957363 31.52731297628972)"><path d="M0.59 -0.25 C-4.71 10.58, -26.87 53.69, -32.13 64.48 M-0.55 -1.42 C-5.45 9.1, -24.71 52.03, -29.89 62.67" stroke="#1e1e1e" stroke-width="1" fill="none"></path></g><g transform="translate(688.1160880953977 1753.9106302585355) rotate(0 -15.766882081957363 31.52731297628972)"><path d="M-27.72 31.28 C-27.15 41.38, -27.86 49.85, -31.51 64.06 M-27.7 33.16 C-28.5 40.08, -27.69 46.04, -30.17 62.6" stroke="#1e1e1e" stroke-width="1" fill="none"></path></g><g transform="translate(688.1160880953977 1753.9106302585355) rotate(0 -15.766882081957363 31.52731297628972)"><path d="M-9.12 39.93 C-13.59 47.76, -19.39 53.86, -31.51 64.06 M-9.09 41.81 C-14.22 46.67, -17.8 50.59, -30.17 62.6" stroke="#1e1e1e" stroke-width="1" fill="none"></path></g></g><mask></mask><g transform="translate(805.362879299628 1991.0375268574378) rotate(0 24.609375 16.80000000000001)"><text x="0" y="0" font-family="Cascadia, Segoe UI Emoji" font-size="28px" fill="#1e1e1e" text-anchor="start" style="white-space: pre;" direction="ltr" dominant-baseline="text-before-edge">Add</text></g><g stroke-linecap="round"><g transform="translate(827.8732031097925 1725.7529947155886) rotate(0 0.1059222854876225 128.798675101044)"><path d="M-0.16 -0.53 C0.09 42.23, 1.66 213.81, 1.92 256.65 M-1.7 1.81 C-1.55 44.76, 1.11 215.48, 1.55 258.13" stroke="#1e1e1e" stroke-width="1" fill="none"></path></g><g transform="translate(827.8732031097925 1725.7529947155886) rotate(0 0.1059222854876225 128.798675101044)"><path d="M-9.97 231.92 C-5.71 240.42, -2.4 249.62, 0.86 258.38 M-9.87 230.62 C-4.77 241.39, -0.94 252.72, 2.26 258.47" stroke="#1e1e1e" stroke-width="1" fill="none"></path></g><g transform="translate(827.8732031097925 1725.7529947155886) rotate(0 0.1059222854876225 128.798675101044)"><path d="M10.55 231.65 C7.97 240.21, 4.44 249.5, 0.86 258.38 M10.65 230.35 C7.57 241.13, 3.23 252.57, 2.26 258.47" stroke="#1e1e1e" stroke-width="1" fill="none"></path></g></g><mask></mask><g stroke-linecap="round" transform="translate(791.0793498861794 1663.958242179909) rotate(0 36.20637775726482 28.414746309454813)"><path d="M35.4 -0.81 C42.28 -1.69, 50.85 0.84, 56.56 4.08 C62.27 7.32, 67.16 13.18, 69.65 18.64 C72.14 24.1, 73.45 31.53, 71.5 36.85 C69.55 42.17, 63.66 47.23, 57.93 50.58 C52.2 53.92, 43.93 56.5, 37.11 56.91 C30.3 57.31, 22.94 56.19, 17.04 53.01 C11.14 49.82, 4.34 43.29, 1.71 37.79 C-0.92 32.28, -0.64 25.13, 1.26 19.98 C3.16 14.83, 6.45 10.08, 13.12 6.86 C19.78 3.65, 35.61 1.6, 41.26 0.66 C46.92 -0.27, 47.07 0.82, 47.05 1.26 M39.84 0.54 C46.88 0.85, 55.8 3.45, 61.32 7.38 C66.85 11.31, 71.82 18.43, 72.97 24.13 C74.11 29.84, 71.3 36.63, 68.22 41.59 C65.14 46.56, 60.38 51.34, 54.49 53.92 C48.61 56.5, 39.96 57.8, 32.9 57.06 C25.84 56.33, 17.55 53.25, 12.13 49.51 C6.71 45.78, 1.81 40.31, 0.38 34.65 C-1.06 28.99, 0.47 20.73, 3.51 15.56 C6.55 10.4, 12.28 6.25, 18.62 3.65 C24.96 1.05, 37.83 0.51, 41.53 -0.04 C45.23 -0.58, 40.84 -0.01, 40.8 0.36" stroke="#1e1e1e" stroke-width="1" fill="none"></path></g><g stroke-linecap="round" transform="translate(942.5874486461887 1706.1910046640771) rotate(0 26.651305829737566 24.527690825694663)"><path d="M33.75 6.25 M33.75 6.25 C37.41 10.64, 42.04 13.97, 46.55 18.75 M33.75 6.25 C38.05 9.79, 41.96 13.94, 46.55 18.75 M46.55 18.75 C51.47 26.03, 53 26.66, 46.55 31.25 M46.55 18.75 C54.17 26.94, 54.27 24.1, 46.55 31.25 M46.55 31.25 C43.93 36.11, 39.28 37.94, 33.75 42.81 M46.55 31.25 C43.06 35.81, 37.8 38.37, 33.75 42.81 M33.75 42.81 C26.64 47.92, 28.67 49.8, 20.25 42.81 M33.75 42.81 C26.23 49.2, 26.83 50.34, 20.25 42.81 M20.25 42.81 C16.64 40.52, 11.07 34.12, 6.75 31.25 M20.25 42.81 C15.9 39.58, 11.46 36.24, 6.75 31.25 M6.75 31.25 C1.41 26.24, 0.95 24.76, 6.75 18.75 M6.75 31.25 C0.93 25.64, 1.66 25.27, 6.75 18.75 M6.75 18.75 C12.35 12.86, 16.55 10.85, 20.25 6.25 M6.75 18.75 C11.41 15.63, 13.72 12.38, 20.25 6.25 M20.25 6.25 C28.92 0.85, 27.85 -1.71, 33.75 6.25 M20.25 6.25 C29.13 1.08, 27.14 0.49, 33.75 6.25" stroke="#1e1e1e" stroke-width="1" fill="none"></path></g><g transform="translate(1123.5200351776664 1869.6410657335657) rotate(0 123.046875 16.80000000000001)"><text x="0" y="0" font-family="Cascadia, Segoe UI Emoji" font-size="28px" fill="#1e1e1e" text-anchor="start" style="white-space: pre;" direction="ltr" dominant-baseline="text-before-edge">Group &amp; Friends</text></g><g stroke-linecap="round"><g transform="translate(982.7187070606401 1749.0613029912688) rotate(0 63.75372581945828 69.64358437571897)"><path d="M0.15 -0.69 C21.59 22.74, 107.08 116.63, 128.74 139.98 M-1.24 1.56 C20.01 24.68, 105.72 114.96, 127.58 138.14" stroke="#1e1e1e" stroke-width="1" fill="none"></path></g><g transform="translate(982.7187070606401 1749.0613029912688) rotate(0 63.75372581945828 69.64358437571897)"><path d="M99.6 124.03 C109.79 130.45, 117.01 134.72, 129.24 136.2 M100.35 124.47 C111.22 129.21, 120.01 134.25, 127.03 138.21" stroke="#1e1e1e" stroke-width="1" fill="none"></path></g><g transform="translate(982.7187070606401 1749.0613029912688) rotate(0 63.75372581945828 69.64358437571897)"><path d="M114.5 109.92 C120.07 120.68, 122.72 129.26, 129.24 136.2 M115.26 110.36 C120.67 120.3, 123.88 130.62, 127.03 138.21" stroke="#1e1e1e" stroke-width="1" fill="none"></path></g></g><mask></mask><g stroke-linecap="round" transform="translate(938.7412584622696 1115.917496087987) rotate(0 26.228215503509773 18.372274326113256)"><path d="M35.24 1.57 C40.18 2.73, 46.56 5.74, 49.42 9.35 C52.27 12.95, 53.66 19.18, 52.36 23.22 C51.07 27.26, 46.24 31.46, 41.64 33.58 C37.03 35.71, 30.38 36.13, 24.75 35.97 C19.11 35.8, 11.85 35.18, 7.84 32.6 C3.82 30.02, 1.35 24.65, 0.67 20.49 C0 16.34, 1 11.09, 3.77 7.67 C6.55 4.25, 10.9 0.62, 17.31 -0.03 C23.72 -0.68, 37.63 2.48, 42.23 3.77 C46.84 5.07, 45.45 7.44, 44.93 7.75 M16.89 2.19 C21.42 0.86, 29.68 0.44, 34.87 1.68 C40.06 2.91, 45.16 6.24, 48.02 9.6 C50.88 12.95, 52.95 17.81, 52.02 21.8 C51.09 25.8, 46.75 30.96, 42.42 33.55 C38.1 36.13, 31.66 37.52, 26.05 37.32 C20.44 37.11, 13.18 35.13, 8.79 32.31 C4.4 29.49, 0.63 24.24, -0.27 20.38 C-1.17 16.53, 0.56 12.27, 3.4 9.17 C6.25 6.06, 14.49 3.11, 16.82 1.75 C19.14 0.39, 16.8 0.89, 17.37 1.01" stroke="#1e1e1e" stroke-width="1" fill="none"></path></g><g stroke-linecap="round"><g transform="translate(986.2153777876313 1112.8441679582688) rotate(0 12.325185940957681 -85.83266317345354)"><path d="M-0.83 -0.76 C3.16 -29.53, 19.08 -142.83, 23.12 -171.43 M0.94 1.45 C5.39 -27.14, 21.9 -144.36, 25.48 -173.12" stroke="#1e1e1e" stroke-width="1" fill="none"></path></g><g transform="translate(986.2153777876313 1112.8441679582688) rotate(0 12.325185940957681 -85.83266317345354)"><path d="M30.63 -144.93 C31.49 -151.37, 28.46 -156.98, 26.12 -171.8 M32.26 -144.46 C30.26 -154.39, 27.65 -165.09, 25.23 -172.54" stroke="#1e1e1e" stroke-width="1" fill="none"></path></g><g transform="translate(986.2153777876313 1112.8441679582688) rotate(0 12.325185940957681 -85.83266317345354)"><path d="M10.29 -147.66 C15.92 -153.32, 17.63 -158.3, 26.12 -171.8 M11.92 -147.19 C17.37 -156.22, 22.21 -165.92, 25.23 -172.54" stroke="#1e1e1e" stroke-width="1" fill="none"></path></g></g><mask></mask><g transform="translate(997.9671346889329 896.8176321089963) rotate(0 57.421875 33.599999999999994)"><text x="0" y="0" font-family="Cascadia, Segoe UI Emoji" font-size="28px" fill="#1e1e1e" text-anchor="start" style="white-space: pre;" direction="ltr" dominant-baseline="text-before-edge">Profile</text><text x="0" y="33.6" font-family="Cascadia, Segoe UI Emoji" font-size="28px" fill="#1e1e1e" text-anchor="start" style="white-space: pre;" direction="ltr" dominant-baseline="text-before-edge"></text></g><g stroke-linecap="round"><g transform="translate(765.7723019721445 1755.9273606641375) rotate(0 -34.797410211306214 83.16412719615224)"><path d="M0.22 0.2 C-11.38 27.9, -57.37 137.89, -68.73 165.54 M-1.13 -0.74 C-12.99 27.23, -58.6 139.6, -69.81 167.07" stroke="#1e1e1e" stroke-width="1" fill="none"></path></g><g transform="translate(765.7723019721445 1755.9273606641375) rotate(0 -34.797410211306214 83.16412719615224)"><path d="M-68.36 136.65 C-69.31 149.25, -68.73 161.42, -68.12 168.93 M-67.71 137.91 C-68.11 148.78, -68.98 159.75, -70.64 166.82" stroke="#1e1e1e" stroke-width="1" fill="none"></path></g><g transform="translate(765.7723019721445 1755.9273606641375) rotate(0 -34.797410211306214 83.16412719615224)"><path d="M-49.35 144.39 C-57.37 154.12, -63.92 163.4, -68.12 168.93 M-48.7 145.65 C-56.01 153.8, -63.76 161.97, -70.64 166.82" stroke="#1e1e1e" stroke-width="1" fill="none"></path></g></g><mask></mask><g transform="translate(910.7834497051406 1905.0884620945799) rotate(0 65.625 16.80000000000001)"><text x="0" y="0" font-family="Cascadia, Segoe UI Emoji" font-size="28px" fill="#1e1e1e" text-anchor="start" style="white-space: pre;" direction="ltr" dominant-baseline="text-before-edge">Planning</text></g><g stroke-linecap="round"><g transform="translate(897.9131693779002 1763.413747748243) rotate(0 10.068718718293553 67.74209661838762)"><path d="M0.6 0.41 C4.24 22.79, 17.4 112.14, 20.69 134.87 M-0.55 -0.42 C3.04 22.04, 16.45 113.34, 19.76 135.9" stroke="#1e1e1e" stroke-width="1" fill="none"></path></g><g transform="translate(897.9131693779002 1763.413747748243) rotate(0 10.068718718293553 67.74209661838762)"><path d="M6.19 109.58 C6.93 114.19, 13.01 120.45, 21.5 134.72 M5.13 109.68 C10.44 118.74, 15.24 127.05, 18.99 135.74" stroke="#1e1e1e" stroke-width="1" fill="none"></path></g><g transform="translate(897.9131693779002 1763.413747748243) rotate(0 10.068718718293553 67.74209661838762)"><path d="M26.49 106.59 C23.13 111.91, 25.09 118.78, 21.5 134.72 M25.43 106.69 C23.71 116.61, 21.48 125.95, 18.99 135.74" stroke="#1e1e1e" stroke-width="1" fill="none"></path></g></g><mask></mask><g transform="translate(193.87889260920485 1105.4180865523197) rotate(0 155.859375 50.400000000000006)"><text x="0" y="0" font-family="Cascadia, Segoe UI Emoji" font-size="28px" fill="#e03131" text-anchor="start" style="white-space: pre;" direction="ltr" dominant-baseline="text-before-edge">One Level Buckets?</text><text x="0" y="33.6" font-family="Cascadia, Segoe UI Emoji" font-size="28px" fill="#e03131" text-anchor="start" style="white-space: pre;" direction="ltr" dominant-baseline="text-before-edge">Categorized Levels?</text><text x="0" y="67.2" font-family="Cascadia, Segoe UI Emoji" font-size="28px" fill="#e03131" text-anchor="start" style="white-space: pre;" direction="ltr" dominant-baseline="text-before-edge">What time interval?</text></g><g stroke-linecap="round"><g transform="translate(514.8521376986149 1170.8880465663217) rotate(0 85.7177658152666 112.90899389945166)"><path d="M-0.67 -0.57 C27.97 36.88, 143.51 187.46, 172.1 225.25 M1.18 1.74 C29.72 39.29, 143.54 188.76, 171.68 226.39" stroke="#e03131" stroke-width="1" fill="none"></path></g><g transform="translate(514.8521376986149 1170.8880465663217) rotate(0 85.7177658152666 112.90899389945166)"><path d="M145.55 211.76 C153.45 215.15, 163.05 222.65, 170.43 227.5 M147 210.04 C152.55 214.56, 159.66 218.27, 170.79 225.8" stroke="#e03131" stroke-width="1" fill="none"></path></g><g transform="translate(514.8521376986149 1170.8880465663217) rotate(0 85.7177658152666 112.90899389945166)"><path d="M161.92 199.39 C164.59 206.69, 168.9 218.18, 170.43 227.5 M163.37 197.67 C164.63 205.27, 167.49 212.18, 170.79 225.8" stroke="#e03131" stroke-width="1" fill="none"></path></g></g><mask></mask><g stroke-linecap="round" transform="translate(789.6848441709353 1247.867522309283) rotate(0 28.113505997180596 19.898784223142883)"><path d="M36.25 5 M36.25 5 C42.14 7.88, 45.13 14.49, 48.98 15 M36.25 5 C39.68 8.19, 41.8 10.71, 48.98 15 M48.98 15 C57.75 21.73, 56.16 21.37, 48.98 25 M48.98 15 C57.19 19.31, 56.18 19.33, 48.98 25 M48.98 25 C46.09 26.2, 42.78 30, 36.25 34.8 M48.98 25 C45.58 28.64, 41.24 31.7, 36.25 34.8 M36.25 34.8 C28.24 41.68, 27.11 40.25, 21.75 34.8 M36.25 34.8 C30.91 40.59, 27.67 38.3, 21.75 34.8 M21.75 34.8 C15.21 31.23, 12.92 27.81, 7.25 25 M21.75 34.8 C19.04 33.68, 15.03 30.29, 7.25 25 M7.25 25 C-1.33 18.03, 0.39 21.32, 7.25 15 M7.25 25 C-2.25 19.66, -0.79 20.37, 7.25 15 M7.25 15 C10.58 12.28, 14.02 11.13, 21.75 5 M7.25 15 C12.64 10.53, 19.05 7.25, 21.75 5 M21.75 5 C29.74 1.66, 27.03 0.84, 36.25 5 M21.75 5 C29.1 -2.05, 27.66 -1.79, 36.25 5" stroke="#2f9e44" stroke-width="1" fill="none"></path></g><g stroke-linecap="round"><g transform="translate(821.3996950249666 1244.956660864836) rotate(0 -58.523408625415755 -170.98973293014842)"><path d="M0.08 0.44 C-19.36 -56.57, -97.14 -285.38, -116.65 -342.42 M-1.34 -0.38 C-20.86 -57.22, -97.78 -284.59, -117.13 -341.29" stroke="#1e1e1e" stroke-width="1" fill="none"></path></g><g transform="translate(821.3996950249666 1244.956660864836) rotate(0 -58.523408625415755 -170.98973293014842)"><path d="M-97.61 -316.4 C-105.23 -323.95, -109.85 -333.46, -115.14 -341.71 M-97.93 -317.85 C-105.76 -326.54, -111.97 -333.13, -117.01 -341.45" stroke="#1e1e1e" stroke-width="1" fill="none"></path></g><g transform="translate(821.3996950249666 1244.956660864836) rotate(0 -58.523408625415755 -170.98973293014842)"><path d="M-117.04 -309.8 C-118.79 -319.35, -117.55 -330.85, -115.14 -341.71 M-117.36 -311.25 C-118.7 -321.97, -118.37 -330.78, -117.01 -341.45" stroke="#1e1e1e" stroke-width="1" fill="none"></path></g></g><mask></mask><g transform="translate(444.15882126987685 858.5770360632275) rotate(0 229.6875 16.80000000000001)"><text x="0" y="0" font-family="Cascadia, Segoe UI Emoji" font-size="28px" fill="#1e1e1e" text-anchor="start" style="white-space: pre;" direction="ltr" dominant-baseline="text-before-edge">Swipe for more detailed view</text></g><g stroke-linecap="round" transform="translate(457.05461441329817 10) rotate(0 197.71518653013618 411.0677915176492)"><path d="M32 0 M32 0 C142.65 -0.35, 250.09 0.62, 363.43 0 M32 0 C134.67 1.09, 236.47 1.09, 363.43 0 M363.43 0 C385.84 -0.17, 394.32 9.9, 395.43 32 M363.43 0 C384.33 1.5, 396.68 11.34, 395.43 32 M395.43 32 C396.92 288.14, 397.79 543.72, 395.43 790.14 M395.43 32 C397.16 238.44, 397.29 445.22, 395.43 790.14 M395.43 790.14 C395.93 813.08, 383.77 820.76, 363.43 822.14 M395.43 790.14 C394.64 811.35, 382.96 820.37, 363.43 822.14 M363.43 822.14 C237.02 821.2, 110.82 820.67, 32 822.14 M363.43 822.14 C260.25 823.65, 156.13 823.79, 32 822.14 M32 822.14 C10.64 820.17, -0.88 813.35, 0 790.14 M32 822.14 C12.97 821.82, -1.86 813.36, 0 790.14 M0 790.14 C2.33 611.6, 2.56 431.01, 0 32 M0 790.14 C-2.35 590.56, -2.31 391.51, 0 32 M0 32 C-0.41 11.06, 10.33 -0.32, 32 0 M0 32 C1.14 8.8, 10.19 -2.19, 32 0" stroke="#1e1e1e" stroke-width="1" fill="none"></path></g><g stroke-linecap="round" transform="translate(500.6836888539026 90.15023140058179) rotate(0 157.30836801408225 87.23445582293948)"><path d="M32 0 M32 0 C91.48 -1.95, 154.56 -1.99, 282.62 0 M32 0 C88.84 0.85, 146.9 0.28, 282.62 0 M282.62 0 C302.77 -0.98, 316.52 12.46, 314.62 32 M282.62 0 C303.78 -0.36, 316.86 9.82, 314.62 32 M314.62 32 C313.42 56.16, 315.48 78.92, 314.62 142.47 M314.62 32 C315.33 74, 314.53 116.08, 314.62 142.47 M314.62 142.47 C314.56 164.97, 302.94 173.56, 282.62 174.47 M314.62 142.47 C315.7 162.7, 305.44 173.45, 282.62 174.47 M282.62 174.47 C197.09 172.09, 114.2 171.64, 32 174.47 M282.62 174.47 C199.16 176.38, 116.92 175.74, 32 174.47 M32 174.47 C10.41 176.07, 0.42 165.45, 0 142.47 M32 174.47 C10.79 176.57, -2.28 161.77, 0 142.47 M0 142.47 C1.22 114.28, -1.07 85.79, 0 32 M0 142.47 C-0.32 104.75, -0.32 65.3, 0 32 M0 32 C0.23 10.86, 10.21 1.77, 32 0 M0 32 C-1.67 10.93, 12.62 0.23, 32 0" stroke="#1e1e1e" stroke-width="1" fill="none"></path></g><g stroke-linecap="round" transform="translate(462.63233732509013 739.4016047742737) rotate(0 194.50000000000006 40)"><path d="M20 0 M20 0 C133.26 0.77, 244.59 -1.46, 369 0 M20 0 C121.4 -1.22, 222.46 -1.34, 369 0 M369 0 C382.8 -0.3, 387.79 5.88, 389 20 M369 0 C380.13 -1.84, 389.91 8.57, 389 20 M389 20 C390.12 31.59, 389.88 45.14, 389 60 M389 20 C388.8 33.59, 388.4 46.84, 389 60 M389 60 C389.11 73.53, 383.03 78.78, 369 80 M389 60 C390.53 75.52, 383.13 79.39, 369 80 M369 80 C251.15 79.28, 135.26 79.08, 20 80 M369 80 C258.5 81.97, 147.53 81.61, 20 80 M20 80 C8.63 78.85, -1.86 72.16, 0 60 M20 80 C6.12 81.57, -1.66 73.78, 0 60 M0 60 C1.94 47.48, 1.91 39.09, 0 20 M0 60 C0.97 50.3, 0.06 42.07, 0 20 M0 20 C-1.43 4.68, 7.7 0.07, 20 0 M0 20 C0.53 5.97, 7.24 0.48, 20 0" stroke="#1e1e1e" stroke-width="1" fill="none"></path></g><g transform="translate(565.8924157552659 766.9016047742737) rotate(0 91.23992156982428 12.5)"><text x="91.23992156982422" y="0" font-family="Virgil, Segoe UI Emoji" font-size="20px" fill="#1e1e1e" text-anchor="middle" style="white-space: pre;" direction="ltr" dominant-baseline="text-before-edge">Bottom Navigation</text></g><g stroke-linecap="round" transform="translate(510.83447196075826 518.2939484847816) rotate(0 141.11247032608458 87.23445582293948)"><path d="M32 0 M32 0 C100.12 -1.76, 170.7 -0.34, 250.22 0 M32 0 C116.37 0.81, 202.18 -0.2, 250.22 0 M250.22 0 C270.47 -1, 283.57 9.24, 282.22 32 M250.22 0 C273.17 -0.15, 282.32 9.72, 282.22 32 M282.22 32 C283.51 71.61, 283.14 114.25, 282.22 142.47 M282.22 32 C281.88 62.86, 281.85 91.93, 282.22 142.47 M282.22 142.47 C282.53 163.88, 270.84 175.08, 250.22 174.47 M282.22 142.47 C281 165.22, 270.75 176.16, 250.22 174.47 M250.22 174.47 C197.77 177.5, 142.14 177.28, 32 174.47 M250.22 174.47 C188.32 172.57, 125.41 173.57, 32 174.47 M32 174.47 C11.3 175.09, 1.18 164.36, 0 142.47 M32 174.47 C9.7 172.19, 0.1 165.28, 0 142.47 M0 142.47 C-0.36 113.46, 0.38 81.34, 0 32 M0 142.47 C-1.9 99.82, -0.22 59.4, 0 32 M0 32 C-0.21 10.9, 9.53 -1.64, 32 0 M0 32 C1.44 9.56, 11.26 0.89, 32 0" stroke="#1e1e1e" stroke-width="1" fill="none"></path></g><g stroke-linecap="round" transform="translate(501.47909866721056 301.7732431344748) rotate(0 63.48724199242923 87.23445582293948)"><path d="M31.74 0 M31.74 0 C44.04 -1.1, 58.91 -1.15, 95.23 0 M31.74 0 C56.58 0.89, 79.24 -0.91, 95.23 0 M95.23 0 C115.11 1.56, 128.86 10.38, 126.97 31.74 M95.23 0 C116.66 -1.31, 125.08 12.02, 126.97 31.74 M126.97 31.74 C127.02 58.96, 125.35 88.56, 126.97 142.73 M126.97 31.74 C128.02 71.95, 127.54 111.28, 126.97 142.73 M126.97 142.73 C128.58 164.38, 115.01 175.47, 95.23 174.47 M126.97 142.73 C129.21 166.08, 115.14 175.29, 95.23 174.47 M95.23 174.47 C78.99 172.25, 61 173.56, 31.74 174.47 M95.23 174.47 C78.98 173.16, 64.11 174.9, 31.74 174.47 M31.74 174.47 C11.86 175.4, -0.51 162.15, 0 142.73 M31.74 174.47 C11.42 175.86, 0.64 164.83, 0 142.73 M0 142.73 C-0.13 100.01, 0.59 57.44, 0 31.74 M0 142.73 C1.24 116.97, 1.02 91.8, 0 31.74 M0 31.74 C0.97 9.87, 10.18 -0.13, 31.74 0 M0 31.74 C0.05 11.13, 10.13 0.18, 31.74 0" stroke="#1e1e1e" stroke-width="1" fill="none"></path></g><g stroke-linecap="round" transform="translate(676.7535742942276 296.4186119657371) rotate(0 63.48724199242923 87.23445582293942)"><path d="M31.74 0 M31.74 0 C49.49 -0.09, 67.78 -1.24, 95.23 0 M31.74 0 C53.92 -0.05, 77.63 -0.21, 95.23 0 M95.23 0 C115 -0.13, 127.3 9.88, 126.97 31.74 M95.23 0 C114.22 2, 124.81 9.51, 126.97 31.74 M126.97 31.74 C128.57 64.86, 125.31 97.62, 126.97 142.73 M126.97 31.74 C127.1 66.95, 127.76 101.65, 126.97 142.73 M126.97 142.73 C127.31 163.84, 114.7 173.34, 95.23 174.47 M126.97 142.73 C129.03 165.09, 115.78 172.24, 95.23 174.47 M95.23 174.47 C73.86 173.67, 51.12 173.44, 31.74 174.47 M95.23 174.47 C70.96 174.9, 45.81 173.86, 31.74 174.47 M31.74 174.47 C9.34 174.64, 0.81 164.87, 0 142.73 M31.74 174.47 C8.29 176.59, 0.03 163.42, 0 142.73 M0 142.73 C0.92 102.44, -0.11 61.64, 0 31.74 M0 142.73 C0.17 103.93, 0.41 66.75, 0 31.74 M0 31.74 C-1.96 8.67, 9.99 0.04, 31.74 0 M0 31.74 C1.39 10.48, 11.34 1.49, 31.74 0" stroke="#1e1e1e" stroke-width="1" fill="none"></path></g><g transform="translate(642.8217301307623 141.95679566651415) rotate(0 24.609375 16.799999999999955)"><text x="0" y="0" font-family="Cascadia, Segoe UI Emoji" font-size="28px" fill="#1e1e1e" text-anchor="start" style="white-space: pre;" direction="ltr" dominant-baseline="text-before-edge">TBD</text></g><g transform="translate(1266.8833460392846 994.9068933416347) rotate(0 65.625 16.799999999999997)"><text x="0" y="0" font-family="Cascadia, Segoe UI Emoji" font-size="28px" fill="#1e1e1e" text-anchor="start" style="white-space: pre;" direction="ltr" dominant-baseline="text-before-edge">Cashflow</text></g><g stroke-linecap="round" transform="translate(1281.4105754806415 1165.1042850539206) rotate(0 165.72955786731927 14.669387790968102)"><path d="M7.33 0 M7.33 0 C124.65 0.09, 241.46 0.83, 324.12 0 M7.33 0 C72.07 -0.18, 135.91 0.06, 324.12 0 M324.12 0 C329.3 1.85, 329.54 4.11, 331.46 7.33 M324.12 0 C329.47 0.45, 331.97 1.72, 331.46 7.33 M331.46 7.33 C331.26 10.36, 332.2 17.24, 331.46 22 M331.46 7.33 C331.45 12.5, 330.98 17.78, 331.46 22 M331.46 22 C330.13 27.48, 328.59 29.83, 324.12 29.34 M331.46 22 C332.38 25.38, 327.94 28.47, 324.12 29.34 M324.12 29.34 C241.99 28.96, 162.58 28.99, 7.33 29.34 M324.12 29.34 C218.02 31.42, 112.27 31.13, 7.33 29.34 M7.33 29.34 C1.59 27.87, -0.22 27.52, 0 22 M7.33 29.34 C2.11 31.61, 1.9 25.62, 0 22 M0 22 C-1.28 17.06, -0.58 14.06, 0 7.33 M0 22 C-0.57 18.02, 0.01 13.88, 0 7.33 M0 7.33 C-0.5 3.6, 3.32 -0.59, 7.33 0 M0 7.33 C-0.95 2.4, 4.36 0.97, 7.33 0" stroke="#e03131" stroke-width="1" fill="none"></path></g><g stroke-linecap="round" transform="translate(1281.2142615692712 1202.0451476175167) rotate(0 165.72955786731927 14.669387790968102)"><path d="M7.33 0 M7.33 0 C110.47 -1.84, 211.75 -1.7, 324.12 0 M7.33 0 C88.99 -2.75, 171.97 -2.35, 324.12 0 M324.12 0 C329.82 -1.2, 330.58 0.95, 331.46 7.33 M324.12 0 C328.57 0.88, 329.21 4.37, 331.46 7.33 M331.46 7.33 C332.28 9.52, 331.73 13.34, 331.46 22 M331.46 7.33 C331.99 11.87, 331.01 17.79, 331.46 22 M331.46 22 C330.85 27.42, 328.46 29.2, 324.12 29.34 M331.46 22 C332.85 28.24, 327.47 29.4, 324.12 29.34 M324.12 29.34 C244.64 29.62, 166.91 28.73, 7.33 29.34 M324.12 29.34 C208.5 28.52, 91.46 29.03, 7.33 29.34 M7.33 29.34 C3.04 30.71, -1.45 27.71, 0 22 M7.33 29.34 C4.51 30.3, 0.09 25.79, 0 22 M0 22 C0.44 17.69, -0.75 12.87, 0 7.33 M0 22 C0.62 18, 0.6 15.98, 0 7.33 M0 7.33 C1.9 4.14, 3.7 -1.85, 7.33 0 M0 7.33 C-2.19 2.95, 1.73 -1.51, 7.33 0" stroke="#2f9e44" stroke-width="1" fill="none"></path></g><g stroke-linecap="round" transform="translate(1281.745663019014 1238.8269282184515) rotate(0 165.72955786731927 14.669387790968102)"><path d="M7.33 0 M7.33 0 C127.03 1.32, 247.87 -0.41, 324.12 0 M7.33 0 C84.27 1.93, 159.32 1.83, 324.12 0 M324.12 0 C327.39 -1.74, 331.09 2.7, 331.46 7.33 M324.12 0 C328.17 0.06, 331.33 4.55, 331.46 7.33 M331.46 7.33 C330.87 12.76, 330.47 14.99, 331.46 22 M331.46 7.33 C330.82 10.47, 331.92 14.5, 331.46 22 M331.46 22 C333.19 27.12, 329.58 31.09, 324.12 29.34 M331.46 22 C333.05 26.22, 329.93 31.21, 324.12 29.34 M324.12 29.34 C244.96 27.76, 167.94 27.96, 7.33 29.34 M324.12 29.34 C224.54 29.5, 124.93 29.59, 7.33 29.34 M7.33 29.34 C2.18 30.49, 0.04 26.19, 0 22 M7.33 29.34 C3.13 31.62, -1.69 26.18, 0 22 M0 22 C-0.86 16.49, 1.37 11.42, 0 7.33 M0 22 C0.16 17.81, -0.6 12, 0 7.33 M0 7.33 C-1.42 1.29, 1.58 0.05, 7.33 0 M0 7.33 C0.44 3.37, 0.66 -1.75, 7.33 0" stroke="#2f9e44" stroke-width="1" fill="none"></path></g><g stroke-linecap="round" transform="translate(1281.332726860615 1275.7677907820475) rotate(0 165.72955786731927 14.669387790968102)"><path d="M7.33 0 M7.33 0 C98.89 -2.34, 189.02 -2.21, 324.12 0 M7.33 0 C71.17 0.39, 135.51 0.11, 324.12 0 M324.12 0 C328.64 0.26, 330.73 2.5, 331.46 7.33 M324.12 0 C328.89 2.11, 331.61 3.02, 331.46 7.33 M331.46 7.33 C330.37 11.26, 330.56 17.67, 331.46 22 M331.46 7.33 C331.81 12.24, 331.97 17.15, 331.46 22 M331.46 22 C332.03 28.65, 330.4 28.75, 324.12 29.34 M331.46 22 C332.38 28.76, 327.81 29.37, 324.12 29.34 M324.12 29.34 C260.61 31.09, 195.93 29.06, 7.33 29.34 M324.12 29.34 C223.17 28.45, 122.76 29.01, 7.33 29.34 M7.33 29.34 C2.49 28.64, 0.6 28.88, 0 22 M7.33 29.34 C0.75 28.63, 2.29 28.44, 0 22 M0 22 C1.54 18.21, 0.39 13.12, 0 7.33 M0 22 C-0.56 15.61, -0.57 9.92, 0 7.33 M0 7.33 C-0.86 2.5, 2.82 0.8, 7.33 0 M0 7.33 C-1.79 0.7, 2.47 -1.5, 7.33 0" stroke="#e03131" stroke-width="1" fill="none"></path></g><g transform="translate(1279.4396842684835 1087.6089181790899) rotate(0 59.63996887207031 17.5)"><text x="0" y="0" font-family="Virgil, Segoe UI Emoji" font-size="28px" fill="#1e1e1e" text-anchor="start" style="white-space: pre;" direction="ltr" dominant-baseline="text-before-edge">Cashflow</text></g><g stroke-linecap="round"><g transform="translate(1677.3451084342378 1075.4091358936405) rotate(0 -2.947039815490257 337.08354819930423)"><path d="M-0.04 -0.2 C-0.97 112.35, -3.78 562.93, -4.61 675.51 M-1.52 -1.34 C-2.74 110.84, -5.68 561.38, -5.85 673.8" stroke="#1e1e1e" stroke-width="1" fill="none"></path></g><g transform="translate(1677.3451084342378 1075.4091358936405) rotate(0 -2.947039815490257 337.08354819930423)"><path d="M-16.31 644.62 C-10.78 654.69, -7.34 668.04, -4.64 673.88 M-15.64 646.37 C-11.33 656.92, -7.6 667.01, -5.64 672.95" stroke="#1e1e1e" stroke-width="1" fill="none"></path></g><g transform="translate(1677.3451084342378 1075.4091358936405) rotate(0 -2.947039815490257 337.08354819930423)"><path d="M4.21 644.71 C1.97 654.74, -2.37 668.06, -4.64 673.88 M4.89 646.46 C1.28 656.99, -2.9 667.04, -5.64 672.95" stroke="#1e1e1e" stroke-width="1" fill="none"></path></g></g><mask></mask><g transform="translate(1684.3788895685275 1391.64731782745) rotate(0 35.769989013671875 17.5)"><text x="0" y="0" font-family="Virgil, Segoe UI Emoji" font-size="28px" fill="#1e1e1e" text-anchor="start" style="white-space: pre;" direction="ltr" dominant-baseline="text-before-edge">scroll</text></g><g stroke-linecap="round" transform="translate(1407.595509764192 1672.2702883909974) rotate(0 33.68521407955768 29.57781478524646)"><path d="M21.89 1.99 C28.25 -0.46, 39.17 -0.8, 45.87 1.23 C52.57 3.27, 58.68 8.47, 62.08 14.19 C65.49 19.91, 67.43 29.13, 66.28 35.57 C65.12 42.02, 60.53 48.8, 55.17 52.86 C49.82 56.93, 41.44 60.07, 34.13 59.97 C26.81 59.87, 17.04 56.37, 11.31 52.27 C5.59 48.18, 0.76 41.62, -0.23 35.4 C-1.22 29.18, 1.11 20.65, 5.39 14.97 C9.67 9.29, 21.93 3.64, 25.45 1.34 C28.97 -0.96, 26.45 0.82, 26.5 1.17 M31.62 0.03 C38.2 -1.08, 46.9 0.35, 52.47 3.87 C58.04 7.38, 63.12 14.75, 65.02 21.13 C66.93 27.51, 66.69 36.14, 63.88 42.14 C61.08 48.13, 54.49 54.34, 48.18 57.1 C41.87 59.85, 32.9 60.48, 26.02 58.68 C19.15 56.87, 10.99 51.45, 6.92 46.26 C2.84 41.08, 0.94 33.91, 1.55 27.56 C2.15 21.22, 5.64 12.69, 10.54 8.19 C15.43 3.7, 27.87 1.68, 30.93 0.59 C34 -0.51, 28.89 0.98, 28.91 1.63" stroke="#1e1e1e" stroke-width="1" fill="none"></path></g><g stroke-linecap="round" transform="translate(1281.2938025506028 1376.5631377412385) rotate(0 165.72955786731927 14.669387790968102)"><path d="M7.33 0 M7.33 0 C93.51 0.89, 179.2 -1.15, 324.12 0 M7.33 0 C82.31 -0.46, 157.45 -0.58, 324.12 0 M324.12 0 C328.22 -0.11, 332.09 0.5, 331.46 7.33 M324.12 0 C330.03 2.28, 329.7 0.7, 331.46 7.33 M331.46 7.33 C331.56 11.58, 331.16 13.95, 331.46 22 M331.46 7.33 C330.9 11.41, 330.81 14.57, 331.46 22 M331.46 22 C330.66 27.45, 329.92 31.03, 324.12 29.34 M331.46 22 C332.6 25.14, 330.15 30.39, 324.12 29.34 M324.12 29.34 C215.04 32.09, 102.92 31.52, 7.33 29.34 M324.12 29.34 C253.81 27.89, 183.14 28.19, 7.33 29.34 M7.33 29.34 C1.15 28.71, -0.78 27.32, 0 22 M7.33 29.34 C1.71 27.11, -2.12 25.79, 0 22 M0 22 C-0.58 15.98, 0.96 12.65, 0 7.33 M0 22 C0.36 17.55, -0.68 14, 0 7.33 M0 7.33 C-1.87 1.86, 2.34 1.68, 7.33 0 M0 7.33 C-0.36 3.65, 3.08 -1.7, 7.33 0" stroke="#1e1e1e" stroke-width="1" fill="none"></path></g><g stroke-linecap="round" transform="translate(1280.880866392204 1413.5040003048346) rotate(0 165.72955786731927 14.669387790968102)"><path d="M7.33 0 M7.33 0 C103.5 -2.59, 198.51 -1.43, 324.12 0 M7.33 0 C104.65 0.47, 202.63 0.82, 324.12 0 M324.12 0 C329.65 -1.95, 332.34 4.43, 331.46 7.33 M324.12 0 C327.25 -1.75, 330.22 0.18, 331.46 7.33 M331.46 7.33 C331.33 12.12, 330.75 17.38, 331.46 22 M331.46 7.33 C330.78 10.37, 331.07 13.8, 331.46 22 M331.46 22 C332.36 28.59, 330.01 27.81, 324.12 29.34 M331.46 22 C332.6 27.95, 330.11 28.48, 324.12 29.34 M324.12 29.34 C196.59 30.14, 70.04 29.35, 7.33 29.34 M324.12 29.34 C241.55 27.43, 159.7 27.44, 7.33 29.34 M7.33 29.34 C1.67 29.76, -0.64 24.96, 0 22 M7.33 29.34 C0.33 28.24, 0.79 25.55, 0 22 M0 22 C0.94 17.64, -0.15 13.31, 0 7.33 M0 22 C-0.68 18.03, -0.78 13.13, 0 7.33 M0 7.33 C-0.11 4.12, 2.13 1.05, 7.33 0 M0 7.33 C0.64 0.74, 1.4 0.33, 7.33 0" stroke="#1e1e1e" stroke-width="1" fill="none"></path></g><g stroke-linecap="round" transform="translate(1281.6288900889754 1450.2857809057693) rotate(0 165.72955786731927 14.669387790968102)"><path d="M7.33 0 M7.33 0 C122.97 1.8, 240.49 1.06, 324.12 0 M7.33 0 C89.96 1.18, 173.36 0.53, 324.12 0 M324.12 0 C329.9 1.99, 329.93 0.93, 331.46 7.33 M324.12 0 C327.77 -2.26, 333 2.83, 331.46 7.33 M331.46 7.33 C330.71 11.65, 330.17 16.42, 331.46 22 M331.46 7.33 C331.05 12.75, 331.68 18.39, 331.46 22 M331.46 22 C332.45 25.37, 330 30.26, 324.12 29.34 M331.46 22 C332.55 26.03, 331.3 30.96, 324.12 29.34 M324.12 29.34 C216.09 28.45, 109.69 29.05, 7.33 29.34 M324.12 29.34 C252.41 28.39, 181.33 28.76, 7.33 29.34 M7.33 29.34 C1.81 27.4, -1.84 25.94, 0 22 M7.33 29.34 C3.23 27.99, 0.65 25.85, 0 22 M0 22 C-0.31 19.66, -0.16 16.36, 0 7.33 M0 22 C-0.57 17.93, 0.08 14.9, 0 7.33 M0 7.33 C-0.31 3.49, 3 -1.48, 7.33 0 M0 7.33 C-1.04 2.78, 2.38 -0.86, 7.33 0" stroke="#1e1e1e" stroke-width="1" fill="none"></path></g><g stroke-linecap="round" transform="translate(1281.2159539305762 1487.2266434693654) rotate(0 165.72955786731927 14.669387790968102)"><path d="M7.33 0 M7.33 0 C78.29 -0.79, 148.47 -1.09, 324.12 0 M7.33 0 C85.37 -0.56, 163.27 0.82, 324.12 0 M324.12 0 C327.48 -1.52, 330.38 0.48, 331.46 7.33 M324.12 0 C330.56 0.38, 332.45 2.2, 331.46 7.33 M331.46 7.33 C330.12 10.15, 332.2 13.78, 331.46 22 M331.46 7.33 C331.73 12.16, 331.77 15.19, 331.46 22 M331.46 22 C332.45 27.81, 329.96 28.59, 324.12 29.34 M331.46 22 C333.74 28.51, 329.88 27.64, 324.12 29.34 M324.12 29.34 C229.36 27.79, 134.7 26.85, 7.33 29.34 M324.12 29.34 C239.15 28.79, 154.5 27.95, 7.33 29.34 M7.33 29.34 C0.6 28.38, 0.68 25.72, 0 22 M7.33 29.34 C3.09 28.29, -1.76 28.26, 0 22 M0 22 C-0.05 18.07, -0.52 11.12, 0 7.33 M0 22 C0.1 17.5, 0.02 12.15, 0 7.33 M0 7.33 C0.56 0.96, 1.54 0.29, 7.33 0 M0 7.33 C-0.07 1.59, 0.47 0.61, 7.33 0" stroke="#1e1e1e" stroke-width="1" fill="none"></path></g><g transform="translate(1288.2341762620429 1346.8768827884303) rotate(0 17.727996826171875 10)"><text x="0" y="0" font-family="Virgil, Segoe UI Emoji" font-size="16px" fill="#e03131" text-anchor="start" style="white-space: pre;" direction="ltr" dominant-baseline="text-before-edge">June</text></g><g transform="translate(1285.384239824573 1139.3330071027367) rotate(0 19.47199249267578 10)"><text x="0" y="0" font-family="Virgil, Segoe UI Emoji" font-size="16px" fill="#e03131" text-anchor="start" style="white-space: pre;" direction="ltr" dominant-baseline="text-before-edge">July </text></g><g stroke-linecap="round" transform="translate(1540.880026026978 1087.861530375175) rotate(0 27.575335102218787 15.986044886188807)"><path d="M7.99 0 M7.99 0 C20.54 -1.77, 34.13 -1.52, 47.16 0 M7.99 0 C21.95 1, 36.89 0.5, 47.16 0 M47.16 0 C51.75 -1.74, 55.85 3.59, 55.15 7.99 M47.16 0 C50.51 -0.93, 56.96 2.7, 55.15 7.99 M55.15 7.99 C56.64 13.92, 56.53 17.97, 55.15 23.98 M55.15 7.99 C55.87 13.4, 56.03 18.92, 55.15 23.98 M55.15 23.98 C53.5 28.19, 51.75 30.66, 47.16 31.97 M55.15 23.98 C55.43 28.59, 50.62 30.38, 47.16 31.97 M47.16 31.97 C36.36 30.53, 26.61 30.63, 7.99 31.97 M47.16 31.97 C33.61 32.63, 19.19 33.02, 7.99 31.97 M7.99 31.97 C1.15 33.53, 0.88 30.56, 0 23.98 M7.99 31.97 C0.86 32.73, -2.02 31.26, 0 23.98 M0 23.98 C1.41 18.83, -0.94 15.16, 0 7.99 M0 23.98 C0.2 18.44, 0.04 13.54, 0 7.99 M0 7.99 C0.57 1.31, 1.49 0.82, 7.99 0 M0 7.99 C-2.29 2.22, 4.65 -1.51, 7.99 0" stroke="#e03131" stroke-width="1" fill="none"></path></g><g stroke-linecap="round" transform="translate(1546.3160543138927 1075.2434482612994) rotate(0 23.80136939226759 28.905531087878956)"><path d="M30 7.25 M30 7.25 C32.81 9.11, 35.66 15.61, 41.6 21.75 M30 7.25 C34.4 11.92, 38.32 16.77, 41.6 21.75 M41.6 21.75 C49.42 30.82, 47.63 27.36, 41.6 36.25 M41.6 21.75 C48.98 27.98, 47.25 30.14, 41.6 36.25 M41.6 36.25 C37.41 40.86, 32.69 47.67, 30 50.56 M41.6 36.25 C37.98 39.17, 35.58 42.54, 30 50.56 M30 50.56 C24.92 59, 25.94 58.17, 18 50.56 M30 50.56 C24.13 58.93, 24.94 56.88, 18 50.56 M18 50.56 C14 47.34, 11.75 40.41, 6 36.25 M18 50.56 C13.32 45.67, 7.94 40.06, 6 36.25 M6 36.25 C-0.13 29.43, -0.87 29.28, 6 21.75 M6 36.25 C-0.7 31.18, -0.5 26.89, 6 21.75 M6 21.75 C9.33 15.36, 13.35 13.67, 18 7.25 M6 21.75 C8.53 17.09, 11.79 12.88, 18 7.25 M18 7.25 C24.71 -1.02, 25.51 1.94, 30 7.25 M18 7.25 C24.4 -1.66, 24.16 -0.04, 30 7.25" stroke="#e03131" stroke-width="1" fill="none"></path></g><g stroke-linecap="round"><g transform="translate(1599.375098459908 1105.0567233589907) rotate(0 85.26629657283786 -0.9384893530896363)"><path d="M0.24 0.09 C28.85 0.08, 143.15 0.14, 171.63 0.07 M-1.1 -0.91 C27.44 -1.31, 142.56 -2.22, 171.18 -1.92" stroke="#e03131" stroke-width="1" fill="none"></path></g><g transform="translate(1599.375098459908 1105.0567233589907) rotate(0 85.26629657283786 -0.9384893530896363)"><path d="M143.13 9.93 C151.76 6.03, 159.44 3.03, 169.29 -1.33 M142.07 8.39 C148.89 5.67, 154.68 3.38, 170.65 -1.11" stroke="#e03131" stroke-width="1" fill="none"></path></g><g transform="translate(1599.375098459908 1105.0567233589907) rotate(0 85.26629657283786 -0.9384893530896363)"><path d="M143.13 -10.59 C151.78 -8.42, 159.46 -5.34, 169.29 -1.33 M142.06 -12.13 C149.05 -10.66, 154.84 -8.76, 170.65 -1.11" stroke="#e03131" stroke-width="1" fill="none"></path></g></g><mask></mask><g transform="translate(1784.332969183638 1089.6593633843559) rotate(0 135.02993774414062 17.5)"><text x="0" y="0" font-family="Virgil, Segoe UI Emoji" font-size="28px" fill="#1e1e1e" text-anchor="start" style="white-space: pre;" direction="ltr" dominant-baseline="text-before-edge">Time Span selection</text></g><g stroke-linecap="round" transform="translate(2122.1082643616355 1093.298109795897) rotate(0 205.30802652470152 355.4718257489222)"><path d="M32 0 M32 0 C142.51 0.12, 252.5 -1.33, 378.62 0 M32 0 C154.52 -1.67, 276.13 -0.75, 378.62 0 M378.62 0 C398.39 -1.79, 410.44 11.88, 410.62 32 M378.62 0 C401.48 0.9, 411.98 10.43, 410.62 32 M410.62 32 C411.38 219.44, 410.4 408.05, 410.62 678.94 M410.62 32 C409.73 189.67, 409.79 346.66, 410.62 678.94 M410.62 678.94 C412.61 701.33, 400.99 711.02, 378.62 710.94 M410.62 678.94 C412.01 699.53, 399.36 711.84, 378.62 710.94 M378.62 710.94 C284 713.38, 189.59 711.19, 32 710.94 M378.62 710.94 C286.25 711.45, 193.86 710.88, 32 710.94 M32 710.94 C10.11 710.43, 0.13 698.72, 0 678.94 M32 710.94 C11.29 709.81, 2.14 700.98, 0 678.94 M0 678.94 C-0.39 469.71, -1.17 260.16, 0 32 M0 678.94 C0.38 439.59, 0.14 200.21, 0 32 M0 32 C0.9 11.71, 9.73 -0.26, 32 0 M0 32 C1.86 9.05, 10.08 1.16, 32 0" stroke="#1e1e1e" stroke-width="1" fill="none"></path></g><g transform="translate(2271.497682585199 1055.4363947362313) rotate(0 60.913970947265625 17.5)"><text x="0" y="0" font-family="Virgil, Segoe UI Emoji" font-size="28px" fill="#1e1e1e" text-anchor="start" style="white-space: pre;" direction="ltr" dominant-baseline="text-before-edge">Analytics</text></g><g stroke-linecap="round" transform="translate(2132.237797007756 1716.8555238607717) rotate(0 194.5 42.00000000000003)"><path d="M21 0 M21 0 C91.88 0.39, 165.63 1.75, 368 0 M21 0 C95.6 0.08, 170.08 -0.29, 368 0 M368 0 C383.19 -0.9, 389.14 7.56, 389 21 M368 0 C380.48 1.43, 387.32 8.15, 389 21 M389 21 C388.75 29.4, 389.72 40.39, 389 63 M389 21 C388.72 37.09, 388.75 53.05, 389 63 M389 63 C389.54 77.97, 382.34 85.96, 368 84 M389 63 C389.67 76.45, 380.54 83.43, 368 84 M368 84 C228.45 83.51, 91.5 84.27, 21 84 M368 84 C237.18 85.39, 107.26 84.71, 21 84 M21 84 C8.31 83.14, -0.78 75.8, 0 63 M21 84 C5.86 82.9, -0.72 74.97, 0 63 M0 63 C0.35 48.93, -2.37 34.1, 0 21 M0 63 C0.31 51.73, -0.47 41.44, 0 21 M0 21 C0.69 6.55, 5.84 -0.09, 21 0 M0 21 C1.58 5.88, 8.99 -1.95, 21 0" stroke="#1e1e1e" stroke-width="1" fill="none"></path></g><g transform="translate(2235.4978754379317 1746.355523860772) rotate(0 91.23992156982422 12.5)"><text x="91.23992156982422" y="0" font-family="Virgil, Segoe UI Emoji" font-size="20px" fill="#1e1e1e" text-anchor="middle" style="white-space: pre;" direction="ltr" dominant-baseline="text-before-edge">Bottom Navigation</text></g><g stroke-linecap="round" transform="translate(2287.850047931917 1684.349451447694) rotate(0 36.20637775726482 28.414746309454813)"><path d="M26.85 0.83 C33.14 -0.79, 42.06 0.48, 48.62 2.53 C55.18 4.58, 62.21 8.64, 66.21 13.12 C70.21 17.59, 72.86 23.94, 72.63 29.37 C72.41 34.79, 69.32 41.35, 64.87 45.66 C60.41 49.97, 52.91 53.63, 45.92 55.23 C38.93 56.83, 29.65 57.29, 22.93 55.27 C16.22 53.24, 9.4 47.84, 5.66 43.07 C1.91 38.31, -0.11 32.2, 0.45 26.68 C1.01 21.16, 4.34 14.3, 9 9.95 C13.66 5.59, 24.84 2.06, 28.42 0.55 C31.99 -0.96, 30.3 0.37, 30.44 0.89 M45.33 0.47 C51.79 1.06, 58.2 5.5, 62.95 9.74 C67.69 13.97, 73.05 20.45, 73.81 25.87 C74.56 31.29, 71.73 37.33, 67.49 42.24 C63.24 47.15, 55.11 52.86, 48.35 55.34 C41.58 57.82, 33.39 58.42, 26.9 57.13 C20.4 55.83, 14.09 51.98, 9.4 47.57 C4.72 43.16, -0.48 36.6, -1.23 30.69 C-1.98 24.77, 0.77 16.96, 4.9 12.08 C9.03 7.21, 16.99 3.47, 23.56 1.45 C30.12 -0.58, 40.91 0.06, 44.31 -0.07 C47.72 -0.2, 44.1 0.27, 43.98 0.66" stroke="#1e1e1e" stroke-width="1" fill="none"></path></g><g transform="translate(2148.3972193661675 1144.07236352788) rotate(0 60.913970947265625 17.5)"><text x="0" y="0" font-family="Virgil, Segoe UI Emoji" font-size="28px" fill="#1e1e1e" text-anchor="start" style="white-space: pre;" direction="ltr" dominant-baseline="text-before-edge">Analytics</text></g><g stroke-linecap="round" transform="translate(1471.993259995519 1085.8214481998011) rotate(0 26.633558907535416 16.914136065629634)"><path d="M8.46 0 M8.46 0 C21.26 0.92, 38.32 1.12, 44.81 0 M8.46 0 C18.33 0.15, 29.08 -0.18, 44.81 0 M44.81 0 C52.26 -0.47, 54.71 3.02, 53.27 8.46 M44.81 0 C48.85 0.54, 51.13 2.85, 53.27 8.46 M53.27 8.46 C53.68 13.35, 54.75 21.05, 53.27 25.37 M53.27 8.46 C52.78 12.42, 52.85 16.18, 53.27 25.37 M53.27 25.37 C51.43 31.79, 49.85 33.43, 44.81 33.83 M53.27 25.37 C55.4 30.46, 52.58 32.65, 44.81 33.83 M44.81 33.83 C35.59 31.87, 24.35 31.94, 8.46 33.83 M44.81 33.83 C34.5 34.22, 26.62 34.63, 8.46 33.83 M8.46 33.83 C4.09 34.6, -0.63 30.23, 0 25.37 M8.46 33.83 C4.57 35.95, -2.2 30.25, 0 25.37 M0 25.37 C-0.85 19.5, 0.58 17.18, 0 8.46 M0 25.37 C-0.82 20.64, -0.65 17.4, 0 8.46 M0 8.46 C1.79 0.89, 3.2 1.49, 8.46 0 M0 8.46 C0.63 0.81, 4.15 0.9, 8.46 0" stroke="#1e1e1e" stroke-width="1" fill="none"></path></g><g stroke-linecap="round" transform="translate(1483.2906263487885 1060.1275635181337) rotate(0 19.14453262438883 37.51959616570804)"><path d="M25 9.5 M25 9.5 C28.96 14.92, 30.73 20.94, 33.29 28.5 M25 9.5 C27.06 15.67, 30.26 20.69, 33.29 28.5 M33.29 28.5 C37.94 38.52, 39.95 39.43, 33.29 47.5 M33.29 28.5 C37.44 36.78, 40.49 36.37, 33.29 47.5 M33.29 47.5 C31.53 51.03, 28.56 57.4, 25 65.54 M33.29 47.5 C30.72 54.81, 27.93 61.64, 25 65.54 M25 65.54 C20.84 76.9, 18.03 73.42, 15 65.54 M25 65.54 C18.49 75.36, 20.93 73.71, 15 65.54 M15 65.54 C10.36 59.46, 7.49 51.17, 5 47.5 M15 65.54 C12.16 61.37, 9.44 56.81, 5 47.5 M5 47.5 C-1.05 39.46, -0.05 38.16, 5 28.5 M5 47.5 C-1.73 37.54, -0.49 36.07, 5 28.5 M5 28.5 C5.67 25.39, 9.28 18.7, 15 9.5 M5 28.5 C7.55 23.41, 10.2 19.82, 15 9.5 M15 9.5 C21.08 0.94, 19.95 -0.75, 25 9.5 M15 9.5 C20.09 0.88, 20.01 0.83, 25 9.5" stroke="#1e1e1e" stroke-width="1" fill="none"></path></g><g stroke-linecap="round"><g transform="translate(1506.7576604121714 1063.9217198263568) rotate(0 26.275931478290204 -91.29529789216684)"><path d="M0.46 0.01 C9.42 -30.43, 44.67 -151.94, 53.31 -182.6 M-0.76 -1.04 C8.12 -31.26, 43.92 -150.6, 52.59 -180.96" stroke="#1e1e1e" stroke-width="1" fill="none"></path></g><g transform="translate(1506.7576604121714 1063.9217198263568) rotate(0 26.275931478290204 -91.29529789216684)"><path d="M54.5 -150.3 C54.3 -159.78, 51.6 -168.68, 54.17 -181.49 M54.81 -150.08 C54.19 -161.56, 53.81 -171.19, 53.04 -180.56" stroke="#1e1e1e" stroke-width="1" fill="none"></path></g><g transform="translate(1506.7576604121714 1063.9217198263568) rotate(0 26.275931478290204 -91.29529789216684)"><path d="M34.81 -156.08 C39.78 -164.12, 42.25 -171.5, 54.17 -181.49 M35.12 -155.87 C40.78 -165.53, 46.72 -173.3, 53.04 -180.56" stroke="#1e1e1e" stroke-width="1" fill="none"></path></g></g><mask></mask><g transform="translate(1421.30049496528 838.151689784713) rotate(0 126.81194305419922 17.5)"><text x="0" y="0" font-family="Virgil, Segoe UI Emoji" font-size="28px" fill="#1e1e1e" text-anchor="start" style="white-space: pre;" direction="ltr" dominant-baseline="text-before-edge">Analytics selection</text></g><g transform="translate(634.1229851637297 1930.2233453864937) rotate(0 59.63996887207031 17.5)"><text x="0" y="0" font-family="Virgil, Segoe UI Emoji" font-size="28px" fill="#1e1e1e" text-anchor="start" style="white-space: pre;" direction="ltr" dominant-baseline="text-before-edge">Cashflow</text></g><g stroke-linecap="round"><g transform="translate(1679.4307777815407 853.6403577794049) rotate(0 224.195088972583 125.45488184377734)"><path d="M0.68 -0.73 C75.46 40.76, 374.07 208.18, 448.82 250.02 M-0.43 1.5 C74.26 43.72, 373.41 210.53, 448.32 251.64" stroke="#1e1e1e" stroke-width="1" fill="none"></path></g><g transform="translate(1679.4307777815407 853.6403577794049) rotate(0 224.195088972583 125.45488184377734)"><path d="M417.47 248.37 C428.19 250.21, 437.82 248.39, 446.5 252.69 M418.34 247.6 C427.81 247.72, 435.81 249.74, 448.38 252.02" stroke="#1e1e1e" stroke-width="1" fill="none"></path></g><g transform="translate(1679.4307777815407 853.6403577794049) rotate(0 224.195088972583 125.45488184377734)"><path d="M427.42 230.42 C435.22 237.89, 441.75 241.64, 446.5 252.69 M428.29 229.65 C434.62 235.22, 439.6 242.68, 448.38 252.02" stroke="#1e1e1e" stroke-width="1" fill="none"></path></g></g><mask></mask><g transform="translate(2205.1944638869995 1344.4197951587632) rotate(0 123.73194122314453 35)"><text x="0" y="0" font-family="Virgil, Segoe UI Emoji" font-size="28px" fill="#1e1e1e" text-anchor="start" style="white-space: pre;" direction="ltr" dominant-baseline="text-before-edge">Depends on </text><text x="0" y="35" font-family="Virgil, Segoe UI Emoji" font-size="28px" fill="#1e1e1e" text-anchor="start" style="white-space: pre;" direction="ltr" dominant-baseline="text-before-edge">Choosen Slelection</text></g><g stroke-linecap="round" transform="translate(1229.5668485293459 2007.103353675533) rotate(0 208.31801003738804 382.4043857915953)"><path d="M32 0 M32 0 C120.83 -1.56, 210.04 -2.55, 384.64 0 M32 0 C170 -0.94, 309.2 -2.11, 384.64 0 M384.64 0 C407.89 -1.19, 415.65 10.59, 416.64 32 M384.64 0 C406.18 0.61, 415.22 11.39, 416.64 32 M416.64 32 C416.05 306.21, 417.02 581.72, 416.64 732.81 M416.64 32 C415.93 247.84, 416.42 464.01, 416.64 732.81 M416.64 732.81 C416.59 752.41, 406.19 764, 384.64 764.81 M416.64 732.81 C417.32 753, 405.61 762.75, 384.64 764.81 M384.64 764.81 C308.2 766.53, 234.88 765.47, 32 764.81 M384.64 764.81 C313.02 764.41, 242.03 764.36, 32 764.81 M32 764.81 C11.12 762.99, -1.13 752.21, 0 732.81 M32 764.81 C8.99 762.97, 0.91 752.66, 0 732.81 M0 732.81 C-1.25 465.65, -1.55 197.11, 0 32 M0 732.81 C2.57 539.08, 2.84 345.12, 0 32 M0 32 C-0.82 11.83, 11.78 0.55, 32 0 M0 32 C-1.14 10.24, 8.86 -0.67, 32 0" stroke="#1e1e1e" stroke-width="1" fill="none"></path></g><g stroke-linecap="round" transform="translate(1234.1810827202085 2679.8711279393915) rotate(0 203.5 44)"><path d="M22 0 M22 0 C158.21 -1.1, 296.02 -0.6, 385 0 M22 0 C155.5 -2.71, 289.77 -2.54, 385 0 M385 0 C398.68 -0.08, 407.19 7.87, 407 22 M385 0 C398.26 0.73, 409.11 7.04, 407 22 M407 22 C408.74 35.88, 407.04 46.35, 407 66 M407 22 C407.85 37.69, 406.86 52.23, 407 66 M407 66 C407.22 79.86, 400.27 87, 385 88 M407 66 C406.64 78.6, 397.69 88.4, 385 88 M385 88 C261.58 88.98, 134.6 89.65, 22 88 M385 88 C279.29 87.15, 174.23 86.8, 22 88 M22 88 C6.21 86.06, -1.46 79.07, 0 66 M22 88 C8.25 86.51, 1.89 81.86, 0 66 M0 66 C-0.34 49.99, -0.58 31.94, 0 22 M0 66 C0.68 50.52, -0.41 35.65, 0 22 M0 22 C1.11 7.88, 6.35 -0.37, 22 0 M0 22 C-1.8 6.66, 7.49 -1.15, 22 0" stroke="#1e1e1e" stroke-width="1" fill="none"></path></g><g transform="translate(1346.4411611503842 2711.3711279393915) rotate(0 91.23992156982422 12.5)"><text x="91.23992156982422" y="0" font-family="Virgil, Segoe UI Emoji" font-size="20px" fill="#1e1e1e" text-anchor="middle" style="white-space: pre;" direction="ltr" dominant-baseline="text-before-edge">Bottom Navigation</text></g><g stroke-linecap="round" transform="translate(1404.7713862106634 2645.2445831222794) rotate(0 33.68521407955768 29.57781478524646)"><path d="M16.77 4.53 C22.34 1.27, 32.62 -1.02, 39.83 0.11 C47.04 1.23, 55.39 6.33, 60.03 11.28 C64.66 16.22, 67.76 23.29, 67.63 29.76 C67.49 36.24, 64.06 45.3, 59.21 50.11 C54.36 54.93, 45.75 57.94, 38.51 58.65 C31.27 59.36, 21.76 57.51, 15.78 54.35 C9.81 51.19, 4.89 45.66, 2.66 39.68 C0.44 33.71, -1.13 24.93, 2.44 18.5 C6 12.07, 19.54 3.9, 24.05 1.11 C28.56 -1.68, 29.4 1.24, 29.5 1.75 M19.99 1.99 C25.96 -1.01, 35.59 -2.14, 42.27 -0.31 C48.94 1.51, 55.78 7.7, 60.05 12.94 C64.31 18.18, 68.17 24.63, 67.88 31.13 C67.59 37.63, 63.58 47.53, 58.29 51.94 C53 56.35, 43.41 57.3, 36.15 57.58 C28.88 57.86, 20.71 57.09, 14.7 53.61 C8.69 50.14, 2.1 42.93, 0.08 36.74 C-1.94 30.54, -0.72 22.35, 2.58 16.46 C5.88 10.57, 17.15 3.81, 19.88 1.37 C22.61 -1.07, 18.98 1.34, 18.98 1.82" stroke="#1e1e1e" stroke-width="1" fill="none"></path></g><g transform="translate(1381.6001454074594 1962.7183438991647) rotate(0 51.96797180175781 17.5)"><text x="0" y="0" font-family="Virgil, Segoe UI Emoji" font-size="28px" fill="#1e1e1e" text-anchor="start" style="white-space: pre;" direction="ltr" dominant-baseline="text-before-edge">Planning</text></g><g transform="translate(1259.9331676295976 2040.1444662305025) rotate(0 51.96797180175781 17.5)"><text x="0" y="0" font-family="Virgil, Segoe UI Emoji" font-size="28px" fill="#1e1e1e" text-anchor="start" style="white-space: pre;" direction="ltr" dominant-baseline="text-before-edge">Planning</text></g><g stroke-linecap="round" transform="translate(1262.3076159483583 2114.938476608883) rotate(0 167.81163297818102 60.724230633942796)"><path d="M30.36 0 M30.36 0 C90.34 1.5, 147.43 1.95, 305.26 0 M30.36 0 C91.93 -0.74, 152.28 -0.41, 305.26 0 M305.26 0 C324.53 -1.64, 334.33 10, 335.62 30.36 M305.26 0 C327.37 2.22, 335.34 9.95, 335.62 30.36 M335.62 30.36 C336.8 44.62, 334.48 58.45, 335.62 91.09 M335.62 30.36 C335.11 42.34, 335.14 54.93, 335.62 91.09 M335.62 91.09 C336.44 110.64, 324.39 122.94, 305.26 121.45 M335.62 91.09 C336.9 112.13, 326.33 122.39, 305.26 121.45 M305.26 121.45 C208.25 124.49, 108.17 124.33, 30.36 121.45 M305.26 121.45 C237.02 121.56, 167.03 120.74, 30.36 121.45 M30.36 121.45 C10.76 121.28, 1.71 109.51, 0 91.09 M30.36 121.45 C11.22 121.75, -1.94 112.42, 0 91.09 M0 91.09 C0.44 71.65, 0.27 53.95, 0 30.36 M0 91.09 C0.72 69.89, 0.1 46.29, 0 30.36 M0 30.36 C0.15 8.79, 9.32 -1.89, 30.36 0 M0 30.36 C0.02 12.01, 8.71 1.9, 30.36 0" stroke="#1e1e1e" stroke-width="1" fill="none"></path></g><g stroke-linecap="round"><g transform="translate(1468.9508430679884 2114.7186282994357) rotate(0 -37.33227036085475 59.87232644008435)"><path d="M-0.44 -0.18 C-12.95 19.65, -62.55 99.66, -75.09 119.52 M1.53 -1.32 C-11.16 18.67, -63.72 100.85, -76.2 121.07" stroke="#1e1e1e" stroke-width="1" fill="none"></path></g></g><mask></mask><g stroke-linecap="round"><g transform="translate(1677.853197550964 2026.3544368958121) rotate(0 -2.6857078434621826 338.30286156295597)"><path d="M-0.2 0.85 C-1.09 113.5, -4.48 562.35, -5.17 674.78 M-1.76 0.26 C-2.32 113.2, -2.47 564.15, -3.06 676.35" stroke="#1e1e1e" stroke-width="1" fill="none"></path></g><g transform="translate(1677.853197550964 2026.3544368958121) rotate(0 -2.6857078434621826 338.30286156295597)"><path d="M-11.82 646.24 C-10.18 656.57, -5.89 665.71, -4.77 677.53 M-12.54 647.38 C-9.46 657.8, -5.06 668.98, -3.99 676.88" stroke="#1e1e1e" stroke-width="1" fill="none"></path></g><g transform="translate(1677.853197550964 2026.3544368958121) rotate(0 -2.6857078434621826 338.30286156295597)"><path d="M8.7 646.29 C3.84 656.57, 1.65 665.7, -4.77 677.53 M7.98 647.43 C3.56 658.02, 0.45 669.18, -3.99 676.88" stroke="#1e1e1e" stroke-width="1" fill="none"></path></g></g><mask></mask><g transform="translate(1690.616132537485 2369.4262948013493) rotate(0 138.24993896484375 17.5)"><text x="0" y="0" font-family="Virgil, Segoe UI Emoji" font-size="28px" fill="#1e1e1e" text-anchor="start" style="white-space: pre;" direction="ltr" dominant-baseline="text-before-edge">scroll to past plans</text></g><g stroke-linecap="round" transform="translate(1267.154916577649 2263.3034759380275) rotate(0 167.81163297818102 60.724230633942796)"><path d="M30.36 0 M30.36 0 C134.08 0.57, 239.46 0.36, 305.26 0 M30.36 0 C138.25 -1.86, 245.3 -1.64, 305.26 0 M305.26 0 C325.05 -1.4, 333.66 11.11, 335.62 30.36 M305.26 0 C323.73 -1.44, 336.13 7.91, 335.62 30.36 M335.62 30.36 C335.65 49.28, 334.87 69.66, 335.62 91.09 M335.62 30.36 C334.29 44.06, 335.68 59.07, 335.62 91.09 M335.62 91.09 C337.5 112.3, 326.02 122.2, 305.26 121.45 M335.62 91.09 C334.75 109.84, 325.4 122.06, 305.26 121.45 M305.26 121.45 C201.77 118.94, 94.64 120.28, 30.36 121.45 M305.26 121.45 C233.29 120.02, 162.31 120.04, 30.36 121.45 M30.36 121.45 C11.9 120.99, 1.61 109.66, 0 91.09 M30.36 121.45 C9.83 122.9, 2.06 111.39, 0 91.09 M0 91.09 C-0.19 77.71, 0.57 60.64, 0 30.36 M0 91.09 C1.39 69.69, 0.58 47.45, 0 30.36 M0 30.36 C-1.62 9.18, 9.91 -1.12, 30.36 0 M0 30.36 C-1.95 9.51, 11 1.25, 30.36 0" stroke="#1e1e1e" stroke-width="1" fill="none"></path></g><g stroke-linecap="round"><g transform="translate(1380.1569476341456 2268.0195767697455) rotate(0 -37.14892762829584 59.50565548466943)"><path d="M0.67 -0.35 C-11.74 19.88, -61.55 100.49, -74.29 120.59 M-0.44 -1.58 C-12.97 18.42, -62.81 99.06, -74.97 119.05" stroke="#1e1e1e" stroke-width="1" fill="none"></path></g></g><mask></mask><g stroke-linecap="round" transform="translate(1263.5664248169744 2401.6447976286936) rotate(0 167.81163297818102 60.72423063394274)"><path d="M30.36 0 M30.36 0 C87.59 0.38, 144.23 0.65, 305.26 0 M30.36 0 C118.04 0.01, 206.64 -0.73, 305.26 0 M305.26 0 C326.76 1.91, 333.79 10.24, 335.62 30.36 M305.26 0 C326.93 -1.03, 335.64 9.13, 335.62 30.36 M335.62 30.36 C336.4 42.29, 335.66 53.98, 335.62 91.09 M335.62 30.36 C335.59 46.45, 334.82 61.15, 335.62 91.09 M335.62 91.09 C337.16 112.61, 326.71 122.87, 305.26 121.45 M335.62 91.09 C336.72 110.62, 323.57 123.34, 305.26 121.45 M305.26 121.45 C217.66 121.1, 127.81 120.9, 30.36 121.45 M305.26 121.45 C206.4 123.26, 105.94 121.82, 30.36 121.45 M30.36 121.45 C8.74 121.44, 0.37 110.06, 0 91.09 M30.36 121.45 C11.02 121.89, -0.11 110.39, 0 91.09 M0 91.09 C-0.59 77.24, -0.47 63.53, 0 30.36 M0 91.09 C-0.89 68.61, 0.5 46.61, 0 30.36 M0 30.36 C-1.51 11.16, 8.67 -1.61, 30.36 0 M0 30.36 C0 10.5, 10.06 -1.92, 30.36 0" stroke="#1e1e1e" stroke-width="1" fill="none"></path></g><g stroke-linecap="round"><g transform="translate(1581.275599493764 2401.602246342995) rotate(0 -37.66799853217822 60.195689221717885)"><path d="M0.04 1.12 C-12.36 20.94, -61.93 99.96, -74.55 119.73 M-1.41 0.66 C-13.92 20.03, -63.39 97.64, -75.37 117.74" stroke="#1e1e1e" stroke-width="1" fill="none"></path></g></g><mask></mask><g transform="translate(1265.1160008045385 2558.6420082424775) rotate(0 136.30393981933594 17.5)"><text x="0" y="0" font-family="Virgil, Segoe UI Emoji" font-size="28px" fill="#1e1e1e" text-anchor="start" style="white-space: pre;" direction="ltr" dominant-baseline="text-before-edge">Inactive past plans</text></g></svg>